<svg width="57" height="37" viewBox="0 0 57 37" fill="none" xmlns="http://www.w3.org/2000/svg">
<path d="M50.7619 32.3871V33.072C50.7619 34.7288 49.4188 36.072 47.7619 36.072H4C2.34315 36.072 1 34.7288 1 33.072V9.58469C1 8.30216 2.03969 7.26247 3.32222 7.26247M53.3809 28.4585V29.1434C53.3809 30.8003 52.0378 32.1434 50.3809 32.1434H6.61905C4.96219 32.1434 3.61905 30.8003 3.61905 29.1434V5.65611C3.61905 4.37358 4.65874 3.33388 5.94127 3.33388M27.1905 14.4648H30.7917M30.7917 14.4648H34.3929M30.7917 14.4648V10.5363M30.7917 14.4648V18.3934M6.23809 3.71484V25.2148C6.23809 26.8717 7.58124 28.2148 9.23809 28.2148H53C54.6569 28.2148 56 26.8717 56 25.2148V3.71484C56 2.05799 54.6569 0.714844 53 0.714844H9.23809C7.58123 0.714844 6.23809 2.05799 6.23809 3.71484Z" stroke="black"/>
</svg>
