<svg width="57" height="38" viewBox="0 0 57 38" fill="none" xmlns="http://www.w3.org/2000/svg">
<path d="M50.7619 32.9579V33.6428C50.7619 35.2996 49.4188 36.6428 47.7619 36.6428H4C2.34315 36.6428 1 35.2996 1 33.6428V10.1555C1 8.87296 2.03969 7.83327 3.32222 7.83327M53.3809 29.0293V29.7142C53.3809 31.3711 52.0378 32.7142 50.3809 32.7142H6.61905C4.96219 32.7142 3.61905 31.3711 3.61905 29.7142V6.22691C3.61905 4.94438 4.65874 3.90469 5.94127 3.90469M15 8.28564H35.5M40.5 8.28564H46M15 15.2856H25.5M15 22.2856H33M33 22.2856C33 23.9425 34.3431 25.2856 36 25.2856C37.6569 25.2856 39 23.9425 39 22.2856C39 20.6288 37.6569 19.2856 36 19.2856C34.3431 19.2856 33 20.6288 33 22.2856ZM38.5 22.2856H46M30.5 15.2856H46M6.23809 4.28564V25.7856C6.23809 27.4425 7.58124 28.7856 9.23809 28.7856H53C54.6569 28.7856 56 27.4425 56 25.7856V4.28565C56 2.62879 54.6569 1.28564 53 1.28564H9.23809C7.58123 1.28564 6.23809 2.62879 6.23809 4.28564ZM41 8.28564C41 9.9425 39.6569 11.2856 38 11.2856C36.3431 11.2856 35 9.9425 35 8.28564C35 6.62879 36.3431 5.28564 38 5.28564C39.6569 5.28564 41 6.62879 41 8.28564ZM31 15.2856C31 16.9425 29.6569 18.2856 28 18.2856C26.3431 18.2856 25 16.9425 25 15.2856C25 13.6288 26.3431 12.2856 28 12.2856C29.6569 12.2856 31 13.6288 31 15.2856Z" stroke="black"/>
</svg>
